<?xml version="1.0" standalone="no"?>
<!DOCTYPE svg PUBLIC "-//W3C//DTD SVG 20010904//EN"
 "http://www.w3.org/TR/2001/REC-SVG-20010904/DTD/svg10.dtd">
<svg version="1.0" xmlns="http://www.w3.org/2000/svg"
 width="508.000000pt" height="493.000000pt" viewBox="0 0 508.000000 493.000000"
 preserveAspectRatio="xMidYMid meet">

<g transform="translate(0.000000,493.000000) scale(0.100000,-0.100000)"
fill="#000000" stroke="none">
<path d="M2492 4841 c-54 -54 -47 -138 15 -177 15 -10 31 -23 35 -29 4 -5 8
-110 8 -231 0 -166 -3 -224 -12 -231 -7 -6 -67 -13 -133 -17 -126 -7 -276 -37
-409 -80 -43 -14 -82 -26 -87 -26 -5 0 -9 19 -9 43 0 74 -71 122 -143 98 -45
-15 -66 -40 -74 -84 -7 -49 2 -79 33 -111 15 -14 25 -28 23 -29 -2 -2 -40 -25
-84 -52 -44 -26 -111 -71 -150 -100 -70 -54 -265 -246 -321 -319 l-30 -39
-155 98 c-85 54 -203 129 -264 167 -236 148 -250 158 -247 176 18 83 15 101
-21 137 -30 30 -42 35 -81 35 -64 0 -106 -38 -113 -103 -5 -43 -3 -49 30 -82
29 -29 42 -35 77 -35 23 0 50 5 60 10 16 9 57 -13 242 -131 123 -78 249 -158
281 -178 32 -20 85 -53 117 -75 66 -42 65 -38 14 -114 -45 -66 -142 -274 -174
-375 -43 -134 -79 -328 -80 -431 0 -46 -1 -48 -23 -41 -51 16 -77 16 -112 -1
-105 -49 -67 -214 49 -214 23 0 51 7 63 15 21 15 22 14 28 -22 20 -131 29
-185 42 -238 52 -214 167 -452 306 -633 l41 -54 -25 -19 c-13 -10 -42 -30 -64
-43 -22 -13 -152 -93 -288 -179 l-248 -155 -36 24 c-88 60 -194 -5 -180 -110
8 -59 52 -96 113 -96 39 0 51 5 80 34 29 29 34 41 34 83 l1 48 127 78 c70 43
210 130 311 193 101 63 187 114 192 114 4 0 54 -45 111 -101 91 -89 208 -177
357 -266 33 -20 33 -21 13 -32 -47 -25 -65 -98 -37 -151 55 -107 215 -62 215
61 0 26 3 30 18 24 128 -49 314 -91 442 -100 52 -3 105 -8 118 -11 l22 -4 0
-235 0 -235 -38 -19 c-83 -43 -84 -164 -1 -207 38 -19 68 -18 106 6 84 51 77
168 -13 206 l-34 14 2 238 3 237 135 8 c144 7 316 43 443 91 l67 25 0 -25 c0
-34 24 -78 56 -103 78 -61 205 29 174 124 -6 18 -22 44 -36 58 l-25 25 76 46
c125 76 183 123 314 252 l125 123 115 -50 c162 -71 271 -119 306 -135 17 -7
71 -31 120 -52 l90 -40 -3 -35 c-7 -75 55 -134 130 -124 41 6 78 31 78 54 0
19 -14 16 -35 -7 -28 -30 -89 -27 -120 6 -73 78 34 190 118 124 30 -24 37 -25
37 -5 0 21 -59 55 -96 55 -16 0 -45 -11 -63 -24 l-32 -24 -87 38 c-48 21 -154
67 -237 103 -82 36 -185 81 -228 101 l-78 35 59 88 c162 240 246 460 291 763
5 33 10 44 21 41 8 -3 38 -7 66 -9 46 -3 54 -1 82 28 81 80 10 214 -102 193
-14 -3 -29 -9 -32 -14 -14 -24 -22 -1 -27 84 -3 50 -11 117 -17 147 -35 168
-44 203 -72 285 -39 115 -120 279 -193 389 -31 48 -55 89 -54 90 36 30 618
460 626 463 7 3 27 -7 44 -21 84 -71 214 14 179 118 -18 55 -54 81 -112 81
-43 0 -53 -4 -79 -33 -21 -24 -29 -42 -29 -71 0 -44 51 -1 -449 -374 l-193
-145 -137 137 c-75 76 -173 164 -219 195 l-83 58 36 39 c67 75 39 166 -62 194
-54 15 -133 -54 -133 -116 l0 -26 -117 47 c-176 70 -293 98 -473 114 l-125 11
0 239 0 240 32 8 c75 20 101 126 44 187 -25 27 -36 31 -79 31 -42 0 -55 -5
-80 -29z m141 -19 c10 -10 20 -35 24 -55 5 -31 1 -40 -26 -68 -28 -27 -37 -31
-68 -26 -64 11 -96 62 -72 119 23 56 100 72 142 30z m-782 -681 c37 -38 39
-82 4 -116 -35 -36 -87 -37 -122 -2 -35 35 -34 87 2 122 34 35 78 33 116 -4z
m694 -43 c3 -13 4 -81 3 -153 l-3 -130 -80 -8 c-146 -15 -262 -38 -361 -73
-54 -18 -101 -30 -105 -26 -22 24 -147 258 -141 264 16 16 175 70 287 98 122
30 233 46 337 49 52 1 58 -1 63 -21z m320 -13 c66 -14 158 -37 205 -53 101
-35 250 -102 250 -113 0 -4 -20 -42 -45 -83 -25 -42 -45 -79 -45 -81 0 -3 -14
-27 -31 -55 l-30 -50 -49 25 c-115 58 -278 106 -405 119 -33 4 -79 9 -102 12
l-43 5 0 148 c0 81 3 151 7 155 12 12 155 -3 288 -29z m584 10 c32 -16 41 -33
41 -75 0 -42 -9 -59 -41 -75 -42 -22 -67 -18 -100 14 -33 33 -38 74 -13 109
28 41 69 50 113 27z m1252 -14 c31 -31 35 -53 19 -96 -11 -29 -60 -54 -95 -47
-67 12 -93 104 -41 148 38 33 80 31 117 -5z m-4253 -63 c34 -33 30 -89 -9
-122 -35 -30 -58 -32 -98 -11 -65 33 -53 131 19 158 23 9 63 -2 88 -25z m1426
-143 c23 -38 57 -95 74 -127 l32 -56 -82 -48 c-159 -91 -313 -218 -398 -328
-19 -25 -39 -45 -43 -46 -9 0 -225 136 -246 156 -12 11 -9 20 24 61 103 128
248 261 380 350 88 59 188 113 204 111 7 -2 32 -34 55 -73z m1549 -11 c122
-79 230 -169 326 -270 50 -54 91 -103 91 -109 0 -7 17 -30 38 -51 85 -90 209
-351 264 -553 28 -106 67 -404 56 -433 -5 -12 -35 -16 -152 -22 -80 -4 -150
-5 -154 -2 -5 3 -12 58 -15 123 -10 192 -48 337 -135 512 -26 52 -66 121 -89
155 l-43 61 32 25 c64 50 83 68 76 75 -3 4 -32 -12 -63 -36 l-57 -43 -64 72
c-71 78 -187 175 -276 231 -32 20 -58 41 -58 47 0 12 140 264 147 264 2 0 37
-21 76 -46z m-668 -120 c308 -54 597 -220 782 -449 332 -412 394 -941 163
-1410 -47 -97 -154 -250 -228 -329 -80 -83 -300 -237 -385 -269 -18 -7 -18 12
-16 471 2 415 0 487 -15 557 -22 105 -85 234 -142 289 -51 50 -142 101 -196
111 -21 4 -38 10 -37 14 0 3 21 20 47 37 54 35 107 107 123 167 6 24 9 70 6
104 -9 97 -55 170 -139 224 -46 30 -60 33 -139 37 -82 4 -93 2 -145 -24 -183
-92 -221 -328 -77 -472 57 -57 56 -57 -27 -67 -114 -13 -222 -97 -280 -219
-62 -130 -63 -142 -67 -703 -3 -373 -7 -513 -15 -513 -7 0 -44 19 -82 42 -601
353 -817 1101 -498 1722 83 161 200 305 337 411 185 144 348 219 575 266 112
23 334 24 455 3z m-1445 -412 c145 -89 138 -79 97 -143 -126 -197 -207 -454
-207 -655 l0 -92 -72 -7 c-40 -3 -111 -5 -158 -3 l-85 3 -3 52 c-4 71 23 273
52 386 40 157 118 339 202 470 29 45 48 66 57 61 6 -4 59 -36 117 -72z m1369
-83 c94 -40 150 -130 151 -239 0 -107 -53 -193 -153 -247 -49 -27 -179 -25
-232 4 -124 66 -182 222 -128 343 65 147 213 204 362 139z m-24 -550 c174 -24
290 -124 349 -300 43 -128 48 -215 40 -695 l-7 -442 -93 -31 c-51 -17 -132
-38 -181 -46 -102 -18 -321 -21 -408 -5 -33 6 -76 13 -95 16 -37 6 -151 43
-212 69 l-38 15 0 498 c0 453 2 505 20 584 43 195 135 307 284 344 54 14 211
11 341 -7z m-1840 -224 c56 -55 18 -145 -62 -145 -74 0 -112 92 -58 145 16 17
35 25 60 25 25 0 44 -8 60 -25z m3573 -21 c31 -36 29 -79 -7 -115 -51 -51
-128 -28 -146 44 -22 85 94 138 153 71z m-3188 -98 c0 -109 54 -316 121 -461
36 -79 126 -221 180 -285 23 -27 40 -53 36 -56 -15 -15 -242 -154 -252 -154
-46 0 -234 308 -299 489 -30 83 -63 201 -77 276 -15 80 -30 226 -24 236 4 5
76 9 161 9 l154 0 0 -54z m2993 24 c-22 -324 -116 -601 -291 -855 -30 -44 -58
-84 -62 -88 -9 -10 -300 110 -300 123 0 4 15 24 33 46 168 200 269 441 305
729 l7 60 95 6 c52 3 122 5 155 5 58 -1 60 -2 58 -26z m-525 -905 c78 -33 142
-64 142 -69 0 -21 -221 -226 -310 -288 -99 -69 -236 -148 -257 -148 -13 0
-165 249 -158 260 2 4 37 24 77 45 101 52 208 127 286 201 37 35 70 62 73 61
3 -1 70 -29 147 -62z m-2034 -2 c81 -75 165 -136 254 -185 39 -22 72 -46 72
-54 0 -7 -19 -55 -43 -106 -24 -51 -49 -108 -57 -125 -7 -18 -18 -33 -25 -33
-23 0 -148 71 -255 146 -94 66 -291 247 -279 258 18 17 247 156 258 156 7 0
41 -26 75 -57z m437 -268 c90 -36 210 -63 333 -77 l106 -11 0 -154 0 -153 -47
0 c-69 0 -239 26 -333 50 -110 28 -251 80 -256 94 -8 21 107 276 124 276 5 0
37 -11 73 -25z m1020 -42 c18 -32 53 -91 77 -132 54 -90 58 -84 -101 -135
-178 -56 -341 -86 -473 -86 l-64 0 0 154 0 153 98 7 c118 9 220 29 332 66 47
15 88 28 92 29 3 1 21 -25 39 -56z m-2526 -199 c53 -58 16 -144 -61 -144 -52
0 -84 31 -84 82 0 81 92 119 145 62z m2786 -37 c44 -34 49 -83 13 -126 -20
-25 -34 -31 -64 -31 -30 0 -44 6 -64 31 -14 17 -26 41 -26 54 0 13 12 37 26
54 20 24 34 31 62 31 21 0 44 -6 53 -13z m-1496 -22 c54 -53 16 -145 -60 -145
-49 0 -85 36 -85 85 0 25 8 44 25 60 16 17 35 25 60 25 25 0 44 -8 60 -25z
m728 -674 c10 -10 20 -34 24 -54 5 -31 1 -40 -25 -67 -50 -49 -115 -36 -142
30 -34 82 77 153 143 91z"/>
</g>
</svg>
